PathFileType	4	(X/Y/Z)	/Users/mathieubourgeois/Desktop/Analyse/Traitement/Sujet_07/Transformed_Static_Sujet_07_Tpose.trc
DataRate	CameraRate	NumFrames	NumMarkers	Units	OrigDataRate	OrigDataStartFrame	OrigNumFrames
120.000000	120.000000	4	36	mm	120.000000	107	286
Frame#	Time	RFHD			LFHD			RBHD			LBHD			C7			CLAV			RSHO			LSHO			STRN			T10			RBWT			LBWT			RFWT			LFWT			RKNI			LKNI			RKNE			LKNE			LANI			RANI			LANE			RANE			LTOE			RTOE			LHEE			RHEE			RHUM			LHUM			RRAD			LRAD			RWRA			RWRB			LWRA			LWRB			LCAR			RCAR			
		X1	Y1	Z1	X2	Y2	Z2	X3	Y3	Z3	X4	Y4	Z4	X5	Y5	Z5	X6	Y6	Z6	X7	Y7	Z7	X8	Y8	Z8	X9	Y9	Z9	X10	Y10	Z10	X11	Y11	Z11	X12	Y12	Z12	X13	Y13	Z13	X14	Y14	Z14	X15	Y15	Z15	X16	Y16	Z16	X17	Y17	Z17	X18	Y18	Z18	X19	Y19	Z19	X20	Y20	Z20	X21	Y21	Z21	X22	Y22	Z22	X23	Y23	Z23	X24	Y24	Z24	X25	Y25	Z25	X26	Y26	Z26	X27	Y27	Z27	X28	Y28	Z28	X29	Y29	Z29	X30	Y30	Z30	X31	Y31	Z31	X32	Y32	Z32	X33	Y33	Z33	X34	Y34	Z34	X35	Y35	Z35	X36	Y36	Z36	

108	0.8916666666666666	-540.356689453125	1762.301025390625	327.3670959472655	-407.1359252929688	1762.25537109375	339.7140502929686	-541.2523803710938	1753.640747070312	173.043243408203	-398.5388488769531	1752.261840820312	171.6700897216795	-467.8231506347656	1586.0546875	147.9831542968749	-481.2221679687501	1533.832885742188	268.9231567382811	-622.4334106445312	1596.354248046875	174.5963745117186	-332.1421508789062	1598.287841796875	171.5745086669921	-478.7526550292969	1346.8173828125	309.2811279296874	-473.2580871582031	1339.8330078125	96.49407196044908	-536.5802001953125	1099.55908203125	177.7838745117186	-421.4565124511719	1093.9677734375	175.1689453124999	-585.901123046875	1064.186279296875	352.1940002441405	-370.6730651855469	1065.166015625	345.2377319335936	-543.3717651367188	476.132080078125	205.0493774414062	-440.0514526367188	476.753173828125	171.4496917724609	-646.7210083007812	532.9879150390625	206.2356872558593	-333.7222900390625	518.4379272460938	183.8945922851562	-426.4809875488281	86.58208465576173	210.7055358886718	-541.1465454101562	89.73510742187501	203.6145782470703	-342.6833190917969	68.89936828613283	179.8115692138672	-626.75537109375	72.24584960937501	179.4644775390624	-350.5489196777344	29.51883888244631	397.2038879394531	-605.3809204101562	31.99346733093264	393.1472778320312	-390.4435424804688	50.24829864501954	132.877700805664	-583.5133666992188	50.9821891784668	127.6840744018554	-939.5142211914062	1468.340454101562	219.9210662841795	-20.5347652435303	1439.493530273438	216.2472381591796	-944.2129516601562	1518.804931640625	176.2520446777342	-5.197870254516624	1494.509521484375	179.0757904052734	-1212.674682617188	1594.314086914062	217.4300231933591	-1218.4765625	1527.692138671875	188.3981475830076	254.9989624023437	1543.425170898438	240.1333618164062	265.3365783691406	1470.500732421875	218.3976135253906	359.7816162109375	1525.31005859375	211.8912506103515	-1321.274047851562	1573.37744140625	196.3615417480466	
109	0.9	-540.4270629882812	1762.270385742188	327.3035278320311	-406.6431579589844	1762.152221679688	339.3777770996092	-541.2683715820312	1753.591430664062	172.9620056152342	-398.5616455078125	1752.276245117188	171.6004028320311	-467.8107604980469	1586.042724609375	147.9216156005858	-481.2044677734376	1533.84130859375	268.8302917480467	-622.4400634765625	1596.345092773438	174.5481567382811	-332.1171875	1598.297485351562	171.5525054931639	-478.7525329589844	1346.827514648438	309.2244262695311	-473.2431640625	1339.804809570312	96.42777252197251	-536.5731811523438	1099.553955078125	177.7596282958983	-421.4383544921875	1093.978515625	175.1438598632811	-585.8823852539062	1064.187377929688	352.1732482910155	-370.6514282226563	1065.165893554688	345.2153930664061	-543.3602905273438	476.1128540039062	205.0290374755859	-440.0528869628906	476.7500305175781	171.4383544921874	-646.7230834960938	532.9984130859375	206.2468261718749	-333.7120971679688	518.4576416015625	183.8871765136718	-426.4835510253906	86.58612060546876	210.7065429687499	-541.148681640625	89.7511444091797	203.615493774414	-342.6850280761719	68.90405273437501	179.8231658935547	-626.7594604492188	72.24195098876955	179.4728240966796	-350.5460815429688	29.51941108703616	397.2010192871093	-605.371826171875	31.99052047729495	393.1399536132812	-390.4435119628906	50.24339294433594	132.8763885498046	-583.5142211914062	50.97748947143555	127.6804122924804	-939.49365234375	1468.24462890625	219.9230651855467	-20.49088096618655	1439.541748046875	216.2531738281249	-944.2007446289062	1518.717407226562	176.2674560546873	-5.156560897827171	1494.590942382812	179.1265563964843	-1212.6875	1594.136596679688	217.5127105712888	-1218.457275390625	1527.516845703125	188.4741210937498	255.0356140136718	1543.439331054688	240.1640014648437	265.3687744140625	1470.53662109375	218.2893371582031	359.8162231445312	1525.334350585938	211.8958129882812	-1321.267700195312	1573.150512695312	196.4825897216794	
110	0.9083333333333333	-540.4793090820312	1762.318115234375	327.1727294921873	-406.6852722167969	1762.17919921875	339.2980346679686	-541.2796020507812	1753.564331054688	172.8905181884764	-398.5741882324219	1752.279418945312	171.563278198242	-467.7981872558594	1586.04150390625	147.8594818115233	-481.2036437988282	1533.836181640625	268.7677307128905	-622.4450073242188	1596.333251953125	174.4820098876951	-332.0872802734375	1598.308959960938	171.5204315185546	-478.7506103515626	1346.83935546875	309.1697692871093	-473.2207946777344	1339.807739257812	96.37307739257798	-536.5420532226562	1099.557495117188	177.7354431152343	-421.4225769042969	1093.954345703125	175.1123046874999	-585.8697509765625	1064.192993164062	352.1439819335936	-370.6442260742188	1065.180541992188	345.1974182128905	-543.3552856445312	476.1298828125	205.0395202636718	-440.0442810058594	476.7545776367188	171.4230194091796	-646.70849609375	532.9937133789062	206.2583160400389	-333.7115783691406	518.4547729492188	183.8677215576171	-426.4742126464844	86.58576965332033	210.7184448242187	-541.1504516601562	89.75746917724611	203.6311492919921	-342.6810913085938	68.90328216552736	179.8165435791015	-626.7598266601562	72.24309539794923	179.4638671874999	-350.5515747070313	29.52399063110354	397.1994934082031	-605.3753051757812	31.9944705963135	393.1365051269531	-390.4552001953125	50.24233627319337	132.8739013671874	-583.5025024414062	50.98256301879884	127.672622680664	-939.4612426757812	1468.148071289062	219.9283752441404	-20.45064544677737	1439.598754882812	216.2675018310546	-944.1975708007812	1518.627685546875	176.2733764648436	-5.142277240753196	1494.681030273438	179.1505279541015	-1212.692260742188	1593.959106445312	217.6012420654295	-1218.441772460938	1527.342529296875	188.5354919433591	255.0718078613281	1543.4619140625	240.1816253662109	265.3922729492188	1470.56982421875	218.2072143554687	359.8676147460938	1525.369140625	211.907470703125	-1321.292602539062	1572.891479492188	196.5970764160154	
111	0.9166666666666666	-540.522705078125	1762.243530273438	327.1297912597655	-406.7462768554688	1762.1943359375	339.2338867187498	-541.308349609375	1753.540893554688	172.8184661865233	-398.591796875	1752.314453125	171.4888610839842	-467.7930908203125	1586.033325195312	147.787384033203	-481.1933898925782	1533.826416015625	268.6764831542967	-622.449951171875	1596.336303710938	174.4084472656248	-332.0555725097656	1598.3115234375	171.4790802001952	-478.7413024902344	1346.843872070312	309.1116333007811	-473.1946105957031	1339.782958984375	96.3130950927733	-536.5199584960938	1099.53173828125	177.7132263183593	-421.4084167480469	1093.952270507812	175.0978851318358	-585.8433837890625	1064.192749023438	352.1168212890624	-370.6408386230469	1065.195190429688	345.1740112304686	-543.3516235351562	476.1239013671875	205.0160369873046	-440.0462036132812	476.7558288574219	171.4097900390624	-646.69921875	533.0025634765625	206.2492675781249	-333.7073669433594	518.4772338867188	183.8493194580078	-426.4662475585938	86.58658599853517	210.7069091796874	-541.1513671875	89.75826263427736	203.6226654052734	-342.6862487792969	68.90093994140626	179.8344573974609	-626.7532958984375	72.2464065551758	179.4662475585937	-350.5460815429688	29.51930427551272	397.1849670410156	-605.3755493164062	31.9910755157471	393.1399230957031	-390.4530944824219	50.2483024597168	132.8794403076171	-583.5127563476562	50.97857666015626	127.6787948608398	-939.4360961914062	1468.06982421875	219.9439544677732	-20.41254806518557	1439.651245117188	216.2986907958984	-944.2122192382812	1518.540283203125	176.2920074462889	-5.088606357574485	1494.765625	179.1839141845702	-1212.714477539062	1593.760009765625	217.6874999999998	-1218.446044921875	1527.168823242188	188.578659057617	255.1054992675781	1543.520385742188	240.1973571777343	265.4142150878906	1470.638305664062	218.1376495361328	359.8857421875	1525.421752929688	211.9164886474609	-1321.300659179688	1572.653076171875	196.7194976806638	
